<svg id="prefix__a" data-name="granawin-casino" xmlns="http://www.w3.org/2000/svg" viewBox="0 0 16 16"><defs><style>.prefix__r{fill:#fff}</style></defs><path id="prefix__b" data-name="true" class="prefix__r" d="M10.12 2.92s-.05.08-.09.09c-.06 0-.11-.03-.13-.09-.07-.22-.13-.43-.2-.65 0-.04.01-.07.04-.08.03-.02.09 0 .1.06l.2.56.21-.6c.02-.03.05-.05.09-.05.04 0 .07.02.09.06.07.2.14.39.21.59.07-.21.14-.41.21-.62.01-.04.05-.05.09-.04.03.01.05.05.04.08-.08.24-.17.48-.25.72-.02.04-.06.07-.11.07s-.09-.04-.1-.08l-.18-.58c-.07.19-.14.38-.22.56z"/><path id="prefix__c" data-name="o" class="prefix__r" d="M7.94 2.35v.61s-.03.08-.07.08c-.03 0-.06-.04-.06-.08v-.68s0-.05.02-.08c0-.01.02-.02.03-.02.04 0 .08 0 .12.02.02.01.03.02.03.03.04.05.23.28.48.61v-.57c0-.06.03-.1.06-.1s.07.04.07.1V2.99c0 .02-.02.03-.03.04 0 0-.06.01-.1-.02-.01 0-.02-.02-.03-.03l-.51-.63z"/><path id="prefix__d" data-name="n" class="prefix__r" d="M11.63 2.35v.6c0 .05-.04.09-.07.09-.03 0-.07-.04-.06-.09v-.67s0-.05.02-.08c.01-.01.02-.02.03-.02.04 0 .08 0 .11.02.03.01.04.04.04.04l.5.63c0-.19-.01-.39-.02-.58 0-.05.03-.09.06-.09s.07.04.07.1v.67s0 .04-.03.07c-.03.03-.08.03-.11 0-.02-.01-.03-.02-.03-.03l-.24-.3-.27-.36z"/><path id="prefix__e" data-name="i" class="prefix__r" d="M9.24 14.04v.61c0 .06-.04.1-.07.1-.03 0-.06-.04-.06-.09v-.69s0-.05.03-.08c.03-.02.07-.02.07-.02h.06c.19.23.38.46.57.68v-.61c0-.04.03-.07.07-.07s.07.03.07.07v.81c-.01 0-.03.02-.05.02h-.08c-.2-.24-.41-.48-.61-.72z"/><path id="prefix__f" data-name="s" class="prefix__r" d="M10.7 13.86c.25 0 .52.19.53.44 0 .26-.28.47-.54.46-.24 0-.5-.19-.5-.44 0-.26.26-.46.51-.46zm-.01.1c-.19.01-.37.18-.36.38.02.2.22.33.41.32.18-.01.36-.16.36-.35 0-.2-.21-.36-.41-.34z"/><path id="prefix__g" data-name="a" class="prefix__r" d="M5.74 2.79q0 .23-.3.24c-.27 0-.46-.07-.54-.22-.1-.17-.06-.38.1-.51.18-.14.4-.16.64-.12.04.02.07.05.06.07 0 .02-.05.04-.1.02-.42-.06-.66.12-.59.42.06.25.43.25.53.24.02 0 .05 0 .07-.03.05-.05.05-.17 0-.21-.06-.05-.18 0-.21-.04-.01-.02-.01-.04-.01-.04s0-.02.01-.03c.03-.04.24-.08.32.02.03.04.03.08.03.18z"/><path id="prefix__h" data-name="c" class="prefix__r" d="M6.65 3.02h-.14l-.1-.19-.09-.16c-.05-.01-.1-.01-.13-.01-.06 0-.07 0-.08.02 0 .01-.01.03 0 .05v.24s-.04.07-.08.07-.08-.03-.08-.07v-.73-.03c.01-.02.04-.03.07-.03.12-.01.24-.02.37 0 .11.02.19.07.22.16 0 .01.02.06 0 .11-.02.09-.11.1-.13.18 0 .01 0 .04.03.14.02.06.07.15.13.25zm-.16-.63c0-.1-.28-.22-.39-.11-.07.07-.06.22 0 .28.11.09.39-.06.38-.16z"/><path id="prefix__i" data-name="-" class="prefix__r" d="M7.52 14.75c-.05-.08-.09-.17-.14-.25h-.4c-.04.08-.08.16-.12.23-.05 0-.09 0-.14.01l.36-.81s.04-.05.1-.06c.07-.01.12.03.12.04.13.27.25.55.38.82h-.17zm-.17-.35c-.06-.13-.11-.26-.17-.39l-.16.39h.33z"/><path id="prefix__j" data-name="n" class="prefix__r" d="M8.78 3.02c.11-.26.23-.53.34-.79.02-.04.05-.06.1-.06.06 0 .1 0 .12.06.11.26.23.52.34.79-.12.04-.17 0-.19-.08-.03-.14-.11-.19-.3-.19-.18 0-.19.09-.23.17-.03.06-.03.08-.06.1-.04.02-.09.01-.12 0zm.6-.35l-.16-.38c-.05.12-.11.25-.16.37h.32z"/><path id="prefix__k" data-name="i" class="prefix__r" d="M6.74 3.02c.11-.26.22-.52.33-.77.02-.05.04-.08.12-.08s.1.03.12.08c.11.25.22.51.33.76-.11.05-.16 0-.19-.07-.07-.18-.17-.23-.4-.18-.12.02-.1.12-.13.19-.01.03-.03.06-.05.07-.05.03-.11 0-.13 0zm.6-.35l-.16-.38c-.05.13-.1.25-.15.38h.31z"/><path id="prefix__l" data-name="w" class="prefix__r" d="M5.81 14.55s-.11-.2-.03-.39c.09-.22.38-.35.7-.28.03 0 .05.03.04.05 0 .03-.04.05-.07.04-.28-.03-.49.06-.56.21 0 0-.06.13 0 .26.08.17.32.27.59.21 0 0 .05.01.06.04 0 .03-.02.05-.03.06-.08.08-.54.09-.7-.21z"/><path id="prefix__m" data-name="a" class="prefix__r" d="M8.41 13.9v.03c-.02.09-.11.02-.16.02-.12-.01-.24 0-.29.09-.04.1.05.15.16.18.07.02.15.05.21.08.11.05.15.14.14.24-.02.1-.1.16-.22.19-.13.03-.26.02-.39 0-.03 0-.07-.01-.08-.03v-.05c.02-.03.09-.02.11-.02.14.02.4-.02.43-.1.02-.05-.06-.14-.11-.16a3.25 3.25 0 00-.17-.06c-.2-.07-.28-.17-.23-.29.04-.12.19-.18.39-.18.11 0 .18.03.2.06z"/><path id="prefix__n" class="prefix__r" d="M11.12 2.24s.03-.06.06-.07c.04 0 .08.02.09.06v.74s-.05.05-.08.05-.06-.03-.07-.06v-.72z"/><path id="prefix__o" data-name="a" class="prefix__r" d="M8.69 13.96c0-.06.04-.11.08-.11s.09.04.09.1v.73s-.04.08-.08.08-.09-.03-.09-.08v-.72z"/><path id="prefix__p" data-name="r" d="M0 0h16v16H0V0z" fill="none"/><path id="prefix__q" data-name="g" d="M12.39 3.67c.1.01.27.04.4.18.12.12.16.27.16.38v1.96s0 .25-.18.41c-.15.14-.32.15-.37.16-1.47 0-2.93 0-4.4-.01-1.07.01-1.87.87-1.84 1.76.02.7.55 1.35 1.31 1.57.97 0 1.93.02 2.9.03.34.02.57.31.54.59-.03.23-.22.42-.48.46H7.48c-.22-.02-1.02-.14-1.68-.82-.61-.63-.71-1.37-.73-1.67v-.12c0-.5.14-1.27.7-1.9.79-.88 1.88-.9 2.05-.9 1.2 0 2.4.01 3.6.02.3 0 .53-.25.52-.53a.507.507 0 00-.51-.48h-4c-1.52.17-2.79 1.17-3.24 2.55-.58 1.79.52 3.28.63 3.42.93 1.21 2.27 1.43 2.56 1.47 2.02 0 3.51-.03 3.95-.04.1 0 .33-.02.47-.17.13-.14.13-.34.12-.45-.02-.53-.04-1.06-.05-1.59 0-.17-.05-.48-.28-.69-.22-.2-.51-.21-.66-.21-1.31-.03-2.79 0-2.95 0-.46.04-.79-.31-.77-.62.02-.29.35-.58.77-.53h2.85c.15 0 .77-.02 1.33.42.61.48.71 1.16.72 1.29.05 1.75.07 3.03.07 3.29 0 .04 0 .13-.06.21-.11.14-.36.12-.42.11-.36-.03-2.16.02-4.68.1-.13 0-2.84-.05-4.23-2.4-.07-.12-1.41-2.48-.07-4.85a4.832 4.832 0 014.17-2.43l4.73.03z" fill="#06fbad"/></svg>